<svg width="25" height="25" viewBox="0 0 25 25" fill="none" xmlns="http://www.w3.org/2000/svg">
<path d="M4.04719 14.0694C3.85796 14.0707 3.67224 14.0183 3.51162 13.9182C3.351 13.8182 3.22207 13.6746 3.13981 13.5042C3.05754 13.3338 3.02532 13.1435 3.04689 12.9555C3.06846 12.7675 3.14293 12.5895 3.26164 12.4421L13.1269 2.20846C13.2008 2.12249 13.3018 2.06422 13.4133 2.04322C13.5247 2.02221 13.64 2.03972 13.7402 2.09287C13.8404 2.14603 13.9195 2.23166 13.9646 2.33572C14.0097 2.43977 14.0181 2.55608 13.9884 2.66553L12.0889 8.69203C12.0328 8.84374 12.0144 9.0068 12.0351 9.16722C12.0559 9.32764 12.1153 9.48062 12.2082 9.61306C12.301 9.74549 12.4247 9.85341 12.5684 9.92756C12.7122 10.0017 12.8718 10.0399 13.0335 10.0388L20.0335 10.015C20.2227 10.0137 20.4084 10.0661 20.569 10.1662C20.7297 10.2663 20.8586 10.4098 20.9409 10.5803C21.0231 10.7507 21.0553 10.9409 21.0338 11.1289C21.0122 11.3169 20.9377 11.495 20.819 11.6423L10.9538 21.876C10.8798 21.9619 10.7788 22.0202 10.6674 22.0412C10.5559 22.0622 10.4406 22.0447 10.3405 21.9916C10.2403 21.9384 10.1611 21.8528 10.116 21.7487C10.0709 21.6447 10.0625 21.5284 10.0922 21.4189L11.9917 15.3924C12.0478 15.2407 12.0663 15.0776 12.0455 14.9172C12.0248 14.7568 11.9654 14.6038 11.8725 14.4714C11.7796 14.3389 11.656 14.231 11.5123 14.1569C11.3685 14.0827 11.2089 14.0445 11.0471 14.0456L4.04719 14.0694Z" stroke="white" stroke-width="2" stroke-linecap="round" stroke-linejoin="round"/>
</svg>
