<svg width="28" height="28" viewBox="0 0 28 28" fill="none" xmlns="http://www.w3.org/2000/svg">
<path d="M8.95423 9.30074C8.72362 9.07064 8.41561 8.94269 8.08904 8.94269C7.41524 8.94269 6.86682 9.49369 6.86682 10.1706V11.6745H9.31125V10.1706C9.31125 9.84503 9.18433 9.536 8.95423 9.30074Z" fill="url(#paint0_linear_6488_2398)"/>
<path d="M4.64636 6.29757V11.481C4.64636 11.5909 4.72994 11.6765 4.83674 11.6765H6.33858V10.1706C6.33858 9.20219 7.12381 8.41438 8.0891 8.41438C8.55652 8.41438 8.99711 8.59702 9.32988 8.92927C9.65904 9.26565 9.83961 9.70573 9.83961 10.1706V11.6765H11.3399C11.4477 11.6765 11.5354 11.5888 11.5354 11.481V6.29757L10.2414 5.3169L8.08987 3.68759L4.64636 6.29757ZM8.08903 7.30042C7.41298 7.30042 6.86495 6.75238 6.86495 6.07633C6.86495 5.40028 7.41298 4.85225 8.08903 4.85225C8.76508 4.85225 9.31312 5.40028 9.31312 6.07633C9.31312 6.75238 8.76508 7.30042 8.08903 7.30042Z" fill="url(#paint1_linear_6488_2398)"/>
<path d="M3.36273 26.2523H17.4508C16.1193 25.3739 15.2209 23.8973 15.1314 22.208H3.36273C3.21673 22.208 3.09858 22.0899 3.09858 21.9439C3.09858 21.7979 3.21673 21.6797 3.36273 21.6797H15.1303C15.1638 20.992 15.3308 20.3402 15.6082 19.7481H8.08907C7.94307 19.7481 7.82492 19.63 7.82492 19.484C7.82492 19.338 7.94307 19.2198 8.08907 19.2198H15.8944C16.4079 18.3909 17.147 17.7191 18.0276 17.2882H16.6363C16.4903 17.2882 16.3722 17.1701 16.3722 17.0241C16.3722 16.878 16.4903 16.7599 16.6363 16.7599H19.6395C19.6807 16.7599 19.7185 16.7712 19.7533 16.788C19.9298 16.7697 20.1088 16.7599 20.2901 16.7599C20.7147 16.7599 21.1254 16.817 21.5205 16.9139V6.80574H17.4948C16.7488 6.80574 16.1421 6.19902 16.1421 5.453V1.42212H3.36273C2.32573 1.42212 1.48169 2.26616 1.48169 3.30316V24.3718C1.48169 25.4088 2.32573 26.2523 3.36273 26.2523ZM17.1646 14.3005H19.6395C19.7855 14.3005 19.9036 14.4187 19.9036 14.5647C19.9036 14.7107 19.7855 14.8288 19.6395 14.8288H17.1646C17.0186 14.8288 16.9005 14.7107 16.9005 14.5647C16.9005 14.4187 17.0186 14.3005 17.1646 14.3005ZM16.2731 14.5647C16.2731 14.7107 16.155 14.8288 16.0089 14.8288H7.65519C7.50918 14.8288 7.39104 14.7107 7.39104 14.5647C7.39104 14.4187 7.50918 14.3005 7.65519 14.3005H16.0089C16.155 14.3005 16.2731 14.4187 16.2731 14.5647ZM3.27038 6.67367L7.92966 3.14529C7.93443 3.14165 7.94033 3.141 7.94526 3.13775C7.96003 3.12804 7.97544 3.12182 7.9916 3.1153C8.00766 3.10879 8.02297 3.10212 8.03974 3.09896C8.05306 3.09641 8.06589 3.09618 8.0794 3.09567C8.08714 3.09534 8.09365 3.09515 8.10139 3.09551C8.114 3.09612 8.12596 3.09657 8.13841 3.09896C8.15518 3.10212 8.17049 3.10879 8.18655 3.1153C8.20271 3.12182 8.21812 3.12804 8.23289 3.13775C8.23672 3.14026 8.24127 3.14087 8.24501 3.14361C8.24649 3.14471 8.24856 3.14416 8.25004 3.14529L10.4047 4.77815L12.9078 6.67367C13.0244 6.76189 13.0471 6.9275 12.9588 7.04358C12.9067 7.1122 12.8278 7.14831 12.7483 7.14831C12.6926 7.14831 12.6364 7.13077 12.5889 7.09466L12.0637 6.69692V11.481C12.0637 11.8803 11.7392 12.2048 11.3399 12.2048H4.83672C4.44049 12.2048 4.11804 11.8803 4.11804 11.481V6.69421L3.58922 7.09466C3.54176 7.13077 3.48552 7.14831 3.4298 7.14831C3.35035 7.14831 3.27142 7.1122 3.21931 7.04358C3.13109 6.9275 3.15379 6.76189 3.27038 6.67367ZM3.36273 14.3005H6.60271C6.74871 14.3005 6.86686 14.4187 6.86686 14.5647C6.86686 14.7107 6.74871 14.8288 6.60271 14.8288H3.36273C3.21673 14.8288 3.09858 14.7107 3.09858 14.5647C3.09858 14.4187 3.21673 14.3005 3.36273 14.3005ZM3.36273 16.7599H15.3816C15.5276 16.7599 15.6458 16.878 15.6458 17.0241C15.6458 17.1701 15.5276 17.2882 15.3816 17.2882H3.36273C3.21673 17.2882 3.09858 17.1701 3.09858 17.0241C3.09858 16.878 3.21673 16.7599 3.36273 16.7599ZM3.36273 19.2198H6.99481C7.14081 19.2198 7.25896 19.338 7.25896 19.484C7.25896 19.63 7.14081 19.7481 6.99481 19.7481H3.36273C3.21673 19.7481 3.09858 19.63 3.09858 19.484C3.09858 19.338 3.21673 19.2198 3.36273 19.2198ZM3.36273 24.1391H13.3344C13.4804 24.1391 13.5986 24.2572 13.5986 24.4033C13.5986 24.5493 13.4804 24.6674 13.3344 24.6674H3.36273C3.21673 24.6674 3.09858 24.5493 3.09858 24.4033C3.09858 24.2572 3.21673 24.1391 3.36273 24.1391Z" fill="url(#paint2_linear_6488_2398)"/>
<path d="M16.6704 5.45301C16.6704 5.90754 17.0403 6.27745 17.4949 6.27745H21.1474L18.9051 4.03294L16.6704 1.79617V5.45301Z" fill="url(#paint3_linear_6488_2398)"/>
<path d="M24.9349 21.933C24.9349 19.372 22.8511 17.2882 20.2901 17.2882C17.729 17.2882 15.6458 19.372 15.6458 21.933C15.6458 24.4941 17.729 26.5779 20.2901 26.5779C22.8511 26.5779 24.9349 24.4941 24.9349 21.933ZM21.6346 24.4791C21.2239 24.6994 20.7714 24.8114 20.2895 24.8114C18.7021 24.8114 17.4102 23.52 17.4102 21.9325C17.4102 21.6963 17.4407 21.46 17.4986 21.2299L17.2921 21.3439C17.1651 21.4151 17.0037 21.3691 16.9335 21.2402C16.8628 21.1127 16.9092 20.9518 17.0372 20.8816L17.8492 20.4333C17.9751 20.3631 18.1351 20.408 18.2068 20.5344L18.6603 21.3351C18.732 21.462 18.6871 21.623 18.5602 21.6952C18.5194 21.7184 18.4745 21.7292 18.4302 21.7292C18.3383 21.7292 18.2491 21.6813 18.2001 21.5951L18.0305 21.2955C17.9719 21.5035 17.9385 21.7177 17.9385 21.9325C17.9385 23.2285 18.993 24.283 20.2895 24.283C20.6832 24.283 21.0516 24.1922 21.3848 24.0137C21.5128 23.9456 21.6738 23.9926 21.7424 24.1216C21.8115 24.25 21.763 24.41 21.6346 24.4791ZM22.6194 23.3797C22.6137 23.3797 22.6082 23.3759 22.6024 23.3755C22.601 23.3755 22.5997 23.3766 22.5983 23.3766C22.5065 23.3766 22.4172 23.3286 22.3687 23.2424L21.9152 22.4422C21.843 22.3153 21.8879 22.1544 22.0148 22.0827C22.1396 22.0094 22.3022 22.0543 22.3744 22.1822L22.5655 22.5189C22.6142 22.3306 22.6406 22.135 22.6406 21.9325C22.6406 20.636 21.5861 19.5815 20.2895 19.5815C19.9093 19.5815 19.5523 19.6671 19.2283 19.8369C19.1009 19.9034 18.9399 19.8544 18.8718 19.7249C18.8042 19.5959 18.8543 19.436 18.9838 19.3684C19.3836 19.1594 19.8226 19.0532 20.2895 19.0532C21.877 19.0532 23.1689 20.345 23.1689 21.9325C23.1689 22.1382 23.1446 22.3378 23.1034 22.5322L23.2834 22.433C23.4093 22.3618 23.5718 22.4077 23.642 22.5367C23.7127 22.6641 23.6662 22.8251 23.5383 22.8952L22.7841 23.3113C22.7363 23.3513 22.6811 23.3797 22.6194 23.3797Z" fill="url(#paint4_linear_6488_2398)"/>
<path d="M26.5183 21.9325C26.5183 19.9008 25.2207 18.123 23.2896 17.5085C23.1797 17.4734 23.1055 17.3718 23.1055 17.2567V7.10808C23.1055 6.81865 22.9873 6.53438 22.7815 6.32801L18.2063 1.74767C18.0004 1.54182 17.7162 1.42368 17.4262 1.42368H17.045L21.9715 6.35484C22.0046 6.38802 22.0237 6.43026 22.0356 6.47482C22.0386 6.48611 22.0406 6.4961 22.0421 6.50768C22.0437 6.51922 22.0489 6.52983 22.0489 6.5416V17.0241C22.0489 17.0407 22.0423 17.0551 22.0394 17.0708C24.0323 17.7903 25.4632 19.6952 25.4632 21.933C25.4632 23.9054 24.353 25.6222 22.7254 26.4946C24.8804 26.0933 26.5183 24.2021 26.5183 21.9325Z" fill="url(#paint5_linear_6488_2398)"/>
<defs>
<linearGradient id="paint0_linear_6488_2398" x1="8.08904" y1="8.94269" x2="8.08904" y2="11.6745" gradientUnits="userSpaceOnUse">
<stop stop-color="#7030B1"/>
<stop offset="1" stop-color="#B56DD3"/>
</linearGradient>
<linearGradient id="paint1_linear_6488_2398" x1="8.0909" y1="3.68759" x2="8.0909" y2="11.6765" gradientUnits="userSpaceOnUse">
<stop stop-color="#7030B1"/>
<stop offset="1" stop-color="#B56DD3"/>
</linearGradient>
<linearGradient id="paint2_linear_6488_2398" x1="11.5011" y1="1.42212" x2="11.5011" y2="26.2523" gradientUnits="userSpaceOnUse">
<stop stop-color="#7030B1"/>
<stop offset="1" stop-color="#B56DD3"/>
</linearGradient>
<linearGradient id="paint3_linear_6488_2398" x1="18.9089" y1="1.79617" x2="18.9089" y2="6.27745" gradientUnits="userSpaceOnUse">
<stop stop-color="#7030B1"/>
<stop offset="1" stop-color="#B56DD3"/>
</linearGradient>
<linearGradient id="paint4_linear_6488_2398" x1="20.2903" y1="17.2882" x2="20.2903" y2="26.5779" gradientUnits="userSpaceOnUse">
<stop stop-color="#7030B1"/>
<stop offset="1" stop-color="#B56DD3"/>
</linearGradient>
<linearGradient id="paint5_linear_6488_2398" x1="21.7817" y1="1.42368" x2="21.7817" y2="26.4946" gradientUnits="userSpaceOnUse">
<stop stop-color="#7030B1"/>
<stop offset="1" stop-color="#B56DD3"/>
</linearGradient>
</defs>
</svg>
