<svg width="20" height="20" viewBox="0 0 20 20" fill="none" xmlns="http://www.w3.org/2000/svg">
<path d="M16.6668 10.835C16.6668 15.0017 13.7502 17.085 10.2835 18.2933C10.102 18.3549 9.90478 18.3519 9.72516 18.285C6.25016 17.085 3.3335 15.0017 3.3335 10.835V5.00168C3.3335 4.78066 3.42129 4.5687 3.57757 4.41242C3.73385 4.25614 3.94582 4.16834 4.16683 4.16834C5.8335 4.16834 7.91683 3.16834 9.36683 1.90168C9.54337 1.75084 9.76796 1.66797 10.0002 1.66797C10.2324 1.66797 10.457 1.75084 10.6335 1.90168C12.0918 3.17668 14.1668 4.16834 15.8335 4.16834C16.0545 4.16834 16.2665 4.25614 16.4228 4.41242C16.579 4.5687 16.6668 4.78066 16.6668 5.00168V10.835Z" stroke="#F43C3C" stroke-width="1.66667" stroke-linecap="round" stroke-linejoin="round"/>
<path d="M10 6.66797V10.0013" stroke="#F43C3C" stroke-width="1.66667" stroke-linecap="round" stroke-linejoin="round"/>
<path d="M10 13.332H10.0083" stroke="#F43C3C" stroke-width="1.66667" stroke-linecap="round" stroke-linejoin="round"/>
</svg>
